{"title":"AIRLIFT (2016) HQ 1080p Blu-ray x264 Dolby-ATMOS 7.1 ESubs [DD]","uid":14440398,"size":15008962304,"categoryP":"video","categoryS":"hd___movies","magnet":"?xt=urn:btih:e48504011dc5e45050577829e62f0b255ad10452&amp;dn=AIRLIFT+%282016%29+HQ+1080p+Blu-ray+x264+Dolby-ATMOS+7.1+ESubs+%5BDD%5D&amp;tr=udp%3A%2F%2Ftracker.leechers-paradise.org%3A6969&amp;tr=udp%3A%2F%2Fzer0day.ch%3A1337&amp;tr=udp%3A%2F%2Fopen.demonii.com%3A1337&amp;tr=udp%3A%2F%2Ftracker.coppersurfer.tk%3A6969&amp;tr=udp%3A%2F%2Fexodus.desync.com%3A6969","seeders":2,"leechers":6,"uploader":"SaM","files":3,"time":1461673768,"description":"- BollywooD MoviE -\r\n**- AirLift -**\r\n- (2016) -\r\n** HQ 1080p Blu-Ray / x264 / Dolby-ATMOS 7.1 **\r\nEnglish subtitle\r\n \nhttp://extraimago.com/image/amja \nhttp://extraimago.com/image/amj8 \nhttp://extraimago.com/image/amTf \nhttp://extraimago.com/image/amTW \nhttp://extraimago.com/image/amTA \nhttp://extraimago.com/image/amTv \nhttp://extraimago.com/image/amTu \nhttp://extraimago.com/image/amTV \nhttp://extraimago.com/image/amT6 \nhttp://extraimago.com/image/amTx \nhttp://extraimago.com/image/amTt \nhttp://extraimago.com/image/amTo \nhttp://extraimago.com/image/amTk \nhttp://extraimago.com/image/amTH \nhttp://extraimago.com/image/amTF \nhttp://extraimago.com/image/amTD \nhttp://extraimago.com/image/amT5\r\n\r\n[ Specs ]\r\nGeneral\r\nSource = BD50 @ DDR\r\nFormat : Matroska\r\nFile size : 13.98 GiB\r\nDuration : 2h 38mn\r\nOverall bit rate mode : Variable\r\nOverall bit rate : 15.7 Mbps\r\n\r\nVideo\r\nFormat : AVC\r\nFormat profile :   \r\nBit rate : 10 000 Kbps\r\nWidth : 1 920 pixels\r\nHeight : 816 pixels\r\nDisplay aspect ratio : 2.35:1\r\nFrame rate mode : Constant\r\nFrame rate : 24.000 fps\r\nBit depth : 8 bits\r\nScan type : Progressive\r\nTransfer characteristics : BT.709\r\n\r\nAudio #1\r\nFormat : Atmos / TrueHD\r\nCodec ID : A_TRUEHD\r\nBit rate mode : Variable\r\nBit rate : 4 943 Kbps\r\nMaximum bit rate : 8 469 Kbps\r\nChannel(s) : Object Based / 8 channels\r\nChannel positions : Object Based / Front: L C R, Side: L R, Back: L R, LFE\r\nSampling rate : / 48.0 KHz\r\nCompression mode : Lossless\r\nStream size : 4.37 GiB (32%)\r\nLanguage : Hindi\r\nDefault : Yes\r\nForced : No\r\n\r\nAudio #2\r\nID : 3\r\nFormat : AC-3\r\nFormat/Info : Audio Coding 3\r\nBit rate mode : Constant\r\nBit rate : 640 Kbps\r\nChannel(s) : 6 channels\r\nChannel positions : Front: L C R, Side: L R, LFE\r\nSampling rate : 48.0 KHz\r\nCompression mode : Lossy\r\nStream size : 580 MiB (4%)\r\nLanguage : Hindi\r\nDefault : No\r\nForced : No\r\n\r\nLanguage : Hindi\r\n\r\nChapters: YES (named)\r\n\r\n\r\nA DDR Exclusive Release...!","torrent":{"xt":"urn:btih:e48504011dc5e45050577829e62f0b255ad10452","amp;dn":"AIRLIFT+%282016%29+HQ+1080p+Blu-ray+x264+Dolby-ATMOS+7.1+ESubs+%5BDD%5D","amp;tr":["udp%3A%2F%2Ftracker.leechers-paradise.org%3A6969","udp%3A%2F%2Fzer0day.ch%3A1337","udp%3A%2F%2Fopen.demonii.com%3A1337","udp%3A%2F%2Ftracker.coppersurfer.tk%3A6969","udp%3A%2F%2Fexodus.desync.com%3A6969"],"infoHash":"e48504011dc5e45050577829e62f0b255ad10452","infoHashBuffer":{"type":"Buffer","data":[228,133,4,1,29,197,228,80,80,87,120,41,230,47,11,37,90,209,4,82]},"announce":[],"urlList":[]}}